<?xml version="1.0" encoding="utf-8"?>
<!-- Generator: Adobe Illustrator 17.1.0, SVG Export Plug-In . SVG Version: 6.00 Build 0)  -->
<!DOCTYPE svg PUBLIC "-//W3C//DTD SVG 1.1//EN" "http://www.w3.org/Graphics/SVG/1.1/DTD/svg11.dtd">
<svg version="1.1" id="Layer_1" xmlns="http://www.w3.org/2000/svg" xmlns:xlink="http://www.w3.org/1999/xlink" x="0px" y="0px"
	 viewBox="0 0 224.959 219.948" enable-background="new 0 0 224.959 219.948" xml:space="preserve">
<g>
	<path fill="#41B6E6" d="M167.617,174.564c8.367-7.355,14.954-16.424,19.378-26.478l0.138-0.179l27.109,7.209l-24.521-14.191
		l0.065-0.164c4.251-13.176,4.941-27.617,1.332-41.846c10.095-3.163,23.072-3.503,31.982-1.637
		c6.845-22.535-6.513-41.819-18.733-52.284c-3.304,10.034-11.565,24.985-22.063,32.933c-4.031-6.61-8.989-12.457-14.652-17.424
		l-0.332-0.29c-1.086-6.824-4.721-12.663-9.817-16.653l-0.117-0.094l10.803-26.534l-16.694,23.081l-0.106-0.041
		c-4.005-1.681-8.491-2.397-13.114-1.889c-4.231,0.472-8.118,1.913-11.46,4.075l-0.434-0.05c-6.196-0.733-12.536-0.704-18.9,0.153
		l-0.106,0.021L94.675,2.75l3.089,41.453l-0.182,0.065c-1.194,0.329-2.391,0.687-3.579,1.074c-3.444,1.127-6.751,2.47-9.914,4.014
		c-3.174-0.889-6.944-1.179-10.421-0.792c-4.838,0.534-9.224,2.341-12.868,5.052L38.477,37.772l17.935,19.953
		c-4.556,5.36-6.983,12.513-6.146,20.059c0.123,1.109,0.314,2.197,0.563,3.257c-3.336,6.149-5.856,13.035-7.399,19.903l-0.648-0.323
		c-12.988-6.029-25.663-20.778-30.474-25.654c-4.63,8.464-13.496,35.532-4.762,55.33c4.753-1.443,21.696-5.9,34.417-5.351
		c0.534,5.366,1.652,10.758,3.392,16.095c4.043,12.404,10.976,23.054,19.807,31.448l-18.169,22.828l24.606-17.357
		c9.236,7.003,19.997,11.844,31.428,14.074l-7.437,27.913l15.441-26.786c6.818,0.587,13.801,0.255,20.766-1.086l6.24,18.982
		l-0.995-20.191c1.338-0.355,2.67-0.748,4.002-1.182c7.481-2.438,14.326-5.932,20.429-10.257l25.663,22.996L167.617,174.564z"/>
	<path fill="#FFFFFF" d="M154.997,65.371c3.157,9.723-2.329,20.25-12.293,23.509c-9.966,3.248-20.613-2.016-23.791-11.75
		c-3.174-9.729,2.332-20.261,12.29-23.506C141.17,50.381,151.817,55.627,154.997,65.371"/>
	<path fill="#2F363A" d="M146.121,69.492c1.179,5.111-1.977,10.186-7.068,11.375c-5.084,1.159-10.178-1.977-11.375-7.079
		c-1.176-5.096,1.992-10.183,7.062-11.357C139.857,61.233,144.935,64.393,146.121,69.492"/>
	<path fill="#FFFFFF" d="M101.293,74.452c3.186,9.743-2.324,20.255-12.287,23.509c-9.963,3.245-20.607-2.001-23.785-11.753
		c-3.169-9.723,2.335-20.244,12.296-23.509C87.48,59.448,98.127,64.714,101.293,74.452"/>
	<path fill="#2F363A" d="M92.435,78.584c1.191,5.105-1.995,10.172-7.088,11.366c-5.07,1.171-10.169-1.969-11.351-7.079
		c-1.182-5.108,1.977-10.189,7.05-11.363C86.166,70.307,91.241,73.482,92.435,78.584"/>
	<path fill="#FFFFFF" d="M204.757,64.774l-11.31,13.733l14.264-10.371C207.538,66.463,206.195,64.976,204.757,64.774"/>
	<path fill="#FFFFFF" d="M212.621,81.789l-16.544,5.489l16.826-1.124C213.862,84.814,213.595,83.127,212.621,81.789"/>
	<path fill="#FFFFFF" d="M16.908,93.591l14.438,10.389L14.91,97.596C14.482,96.214,15.555,94.31,16.908,93.591"/>
	<path fill="#FFFFFF" d="M13.728,112.655l17.398,1.086l-16.562,3.204C13.182,115.63,13.001,114.145,13.728,112.655"/>
</g>
</svg>
